# xmcd CD database file
#
# Track frame offsets:
#	150
#	19042
#	41112
#	57755
#	78327
#	100052
#	121987
#	137912
#	147030
#	163267
#
# Disc length: 2258 seconds
#
# Revision: 4
# Processed by: cddbd v1.5.2PL0 Copyright (c) Steve Scherf et al.
# Submitted via: CDex 1.70beta2
#
DISCID=8208d00a
DTITLE=Soul Flower Union - Love ± Zero
DYEAR=2002
DGENRE=Classical
TTITLE0=From Tanzania To Patagonia
TTITLE1=Free Balloon
TTITLE2=Crazy Love
TTITLE3=Big Apple
TTITLE4=She
TTITLE5=Charlie Don't Surf
TTITLE6=On Raglan Road
TTITLE7=I Love You
TTITLE8=Shelter From The Storm
TTITLE9=Entry Of The Levelers
EXTD=YEAR: 2002
EXTT0=
EXTT1=
EXTT2=
EXTT3=
EXTT4=
EXTT5=
EXTT6=
EXTT7=
EXTT8=
EXTT9=
PLAYORDER=
